<?xml version="1.0" encoding="UTF-8"?>
<svg width="131px" height="55px" viewBox="0 0 131 55" version="1.1" xmlns="http://www.w3.org/2000/svg" xmlns:xlink="http://www.w3.org/1999/xlink">
    <!-- Generator: Sketch 52.1 (67048) - http://www.bohemiancoding.com/sketch -->
    <title>Group</title>
    <desc>Created with Sketch.</desc>
    <g id="Quiz-1-&amp;-2" stroke="none" stroke-width="1" fill="none" fill-rule="evenodd">
        <g id="Desktop" transform="translate(-332.000000, -648.000000)">
            <g id="Group" transform="translate(332.000000, 648.000000)">
                <path d="M14.42,37 L19.488,16.672 L32.62,16.672 L31.892,19.5 L22.176,19.5 L20.748,25.24 L29.932,25.24 L29.204,28.068 L20.048,28.068 L18.536,34.172 L28.672,34.172 L27.944,37 L14.42,37 Z M31.388,37 L36.456,16.672 L49.476,16.672 L48.748,19.5 L39.144,19.5 L37.576,25.856 L46.508,25.856 L45.78,28.684 L36.876,28.684 L34.804,37 L31.388,37 Z M47.544,37 L52.612,16.672 L65.632,16.672 L64.904,19.5 L55.3,19.5 L53.732,25.856 L62.664,25.856 L61.936,28.684 L53.032,28.684 L50.96,37 L47.544,37 Z M63.7,37 L68.768,16.672 L72.184,16.672 L67.816,34.172 L77.504,34.172 L76.776,37 L63.7,37 Z M84.616,16.672 L88.116,16.672 L85.092,28.572 C84.896,29.328 84.756,30.196 84.756,31.036 C84.756,32.94 85.484,34.704 88.06,34.704 C91.42,34.704 93.044,31.624 93.8,28.572 L96.768,16.672 L100.212,16.672 L97.216,28.712 C95.704,34.816 92.736,37.42 87.696,37.42 C82.908,37.42 81.228,34.956 81.228,31.68 C81.228,30.672 81.396,29.608 81.676,28.488 L84.616,16.672 Z M97.384,37 L106.932,26.276 L102.956,16.672 L106.708,16.672 L109.368,24.232 L109.48,24.232 L115.78,16.672 L119.616,16.672 L110.516,26.808 L114.856,37 L111.104,37 L108.164,28.824 L108.052,28.824 L101.36,37 L97.384,37 Z" id="EFFLUX" fill="#000000"></path>
                <rect id="Rectangle" stroke="#000000" x="0.5" y="0.5" width="130" height="54" rx="5"></rect>
            </g>
        </g>
    </g>
</svg>